<svg width="1194" height="707" viewBox="0 0 1194 707" fill="none" xmlns="http://www.w3.org/2000/svg">
<path d="M311.392 233.99C227.792 220.79 123.333 246.167 82 261.5L76.5 263.49C23 266.99 12.0582 281.99 2.39152 290.49C-7.10848 352.99 33.8915 414.49 68.8915 472.99C103.892 531.49 191.392 573.49 236.392 592.49C272.392 607.69 377.058 622.49 424.892 627.99C426.892 634.99 462.392 674.99 480.892 690.99C499.392 706.99 518.392 708.49 521.392 704.49C524.392 700.49 525.392 669.49 523.392 655.99C521.392 642.49 514 627.49 519.5 627.99C525 628.49 612 614 621 612C628.2 610.4 630.392 620.99 630.392 620.99C651.992 653.39 694.392 670.49 712.892 674.99C737.892 688.49 825.392 677.99 830.892 665.99C835.292 656.39 803.725 634.99 787.392 625.49C766.392 587.99 729.392 595.99 729.392 591.99C729.392 587.99 716.892 578.49 712.892 575.49C708.892 572.49 716 574.553 725.892 569.49C740.999 561.756 749.814 555.878 759.886 549.161L760.892 548.49C836.392 520.49 928.892 379.49 957.392 337.99C980.192 304.79 1013.89 234.823 1027.89 203.99C1089.09 244.79 1163.39 230.323 1192.89 217.99C1144.49 164.39 1083.06 155.323 1058.39 157.49C1083.06 98.3232 1121.89 -15.4101 1079.89 2.98988C1027.39 25.9899 996.892 69.9899 1000.89 145.49C1004.89 220.99 902.392 263.49 870.392 284.99C838.392 306.49 687.392 310.49 653.892 309.49C620.392 308.49 415.892 250.49 311.392 233.99Z" stroke="black"/>
</svg>
